<svg xmlns="http://www.w3.org/2000/svg" width="800" height="800" fill="none" viewBox="0 0 24 24">
  <path stroke="#1C274C" stroke-linecap="round" stroke-width="1.5" d="M2 16.9c0-1.3094 0-1.9641.29472-2.445.16491-.2691.39117-.4954.66028-.6603C3.43594 13.5 4.09063 13.5 5.4 13.5h1.1c1.88562 0 2.82843 0 3.41421.5858C10.5 14.6716 10.5 15.6144 10.5 17.5v1.1c0 1.3094 0 1.9641-.2947 2.445-.1649.2691-.39119.4954-.6603.6603C9.06406 22 8.40937 22 7.1 22c-1.96406 0-2.94609 0-3.6675-.4421-.40366-.2473-.74305-.5867-.99042-.9904M22 7.1c0 1.30937 0 1.96406-.2947 2.445-.1649.26911-.3912.4954-.6603.6603-.4809.2947-1.1356.2947-2.445.2947h-1.1c-1.8856 0-2.8284 0-3.4142-.58579C13.5 9.32843 13.5 8.38562 13.5 6.5V5.4c0-1.30937 0-1.96406.2947-2.445.1649-.26911.3912-.49537.6603-.66028C14.9359 2 15.5906 2 16.9 2c1.9641 0 2.9461 0 3.6675.44208.4037.24737.7431.58676.9904.99042"/>
  <path fill="#1C274C" d="M16.5 6.25c0-.51541 0-.77311.1291-.95507.0456-.06421.1016-.12027.1658-.16582C16.9769 5 17.2346 5 17.75 5s.7731 0 .9551.12911c.0642.04555.1202.10161.1658.16582C19 5.47689 19 5.73459 19 6.25c0 .51541 0 .77311-.1291.95507-.0456.06421-.1016.12027-.1658.16582C18.5231 7.5 18.2654 7.5 17.75 7.5s-.7731 0-.9551-.12911c-.0642-.04555-.1202-.10161-.1658-.16582C16.5 7.02311 16.5 6.76541 16.5 6.25ZM12.75 22c0 .4142.3358.75.75.75s.75-.3358.75-.75h-1.5Zm1.6389-8.1629.4166.6236-.4166-.6236Zm-.5518.5518-.6236-.4167.6236.4167ZM19 12.75h-2v1.5h2v-1.5ZM12.75 19v3h1.5v-3h-1.5ZM17 12.75c-.6866 0-1.258-.0009-1.719.046-.4735.0481-.9128.1529-1.3088.4175l.8333 1.2472c.1085-.0725.2725-.1363.6273-.1724.3674-.0374.8494-.0383 1.5672-.0383v-1.5ZM14.25 17c0-.7178.0009-1.1998.0383-1.5672.0361-.3548.0999-.5188.1724-.6273l-1.2472-.8333c-.2646.396-.3694.8353-.4175 1.3088-.0469.461-.046 1.0324-.046 1.719h1.5Zm-.2778-3.7865c-.3003.2006-.5581.4584-.7587.7587l1.2472.8333c.0912-.1365.2083-.2536.3448-.3448l-.8333-1.2472ZM22.75 13.5c0-.4142-.3358-.75-.75-.75s-.75.3358-.75.75h1.5Zm-1.9846 8.3478.287.6929-.287-.6929Zm1.0824-1.0824-.693-.287.693.287ZM17 22.75h2v-1.5h-2v1.5ZM22.75 17v-3.5h-1.5V17h1.5ZM19 22.75c.4557 0 .835.0004 1.1454-.0208.3171-.0216.6166-.0682.907-.1885l-.574-1.3859c-.0772.032-.1944.0615-.4351.0779-.2475.0169-.5671.0173-1.0433.0173v1.5ZM21.25 19c0 .4762-.0004.7958-.0173 1.0433-.0164.2407-.0459.3579-.0779.4351l1.3859.574c.1203-.2904.1669-.5899.1885-.907.0212-.3104.0208-.6897.0208-1.1454h-1.5Zm-.1976 3.5407c.6738-.2791 1.2092-.8145 1.4883-1.4883l-1.3859-.574c-.1268.3062-.3702.5496-.6764.6765l.574 1.3858Z"/>
  <path stroke="#1C274C" stroke-width="1.5" d="M2 7.1c0-1.96406 0-2.94609.44208-3.6675.24737-.40366.58676-.74305.99042-.99042C4.15391 2 5.13594 2 7.1 2c1.30937 0 1.96406 0 2.445.29472.26911.16491.4954.39117.6603.66028.2947.48094.2947 1.13563.2947 2.445v1.1c0 1.88562 0 2.82843-.58579 3.41421C9.32843 10.5 8.38562 10.5 6.5 10.5H5.4c-1.30937 0-1.96406 0-2.445-.2947-.26911-.1649-.49537-.39119-.66028-.6603C2 9.06406 2 8.40937 2 7.1Z"/>
  <path fill="#1C274C" d="M5 6.25c0-.51541 0-.77311.12911-.95507a.6995818.6995818 0 0 1 .16582-.16582C5.47689 5 5.73459 5 6.25 5c.51541 0 .77311 0 .95507.12911a.6995818.6995818 0 0 1 .16582.16582C7.5 5.47689 7.5 5.73459 7.5 6.25c0 .51541 0 .77311-.12911.95507a.6995818.6995818 0 0 1-.16582.16582C7.02311 7.5 6.76541 7.5 6.25 7.5c-.51541 0-.77311 0-.95507-.12911a.6995818.6995818 0 0 1-.16582-.16582C5 7.02311 5 6.76541 5 6.25Zm0 11.5c0-.5154 0-.7731.12911-.9551.04555-.0642.10161-.1202.16582-.1658.18196-.1291.43966-.1291.95507-.1291.51541 0 .77311 0 .95507.1291.06421.0456.12027.1016.16582.1658.12911.182.12911.4397.12911.9551s0 .7731-.12911.9551c-.04555.0642-.10161.1202-.16582.1658C7.02311 19 6.76541 19 6.25 19c-.51541 0-.77311 0-.95507-.1291-.06421-.0456-.12027-.1016-.16582-.1658C5 18.5231 5 18.2654 5 17.75Zm11 0c0-.7022 0-1.0533.1685-1.3056.073-.1092.1667-.2029.2759-.2759C16.6967 16 17.0478 16 17.75 16s1.0533 0 1.3056.1685c.1092.073.2029.1667.2759.2759.1685.2523.1685.6034.1685 1.3056s0 1.0533-.1685 1.3056c-.073.1092-.1667.2029-.2759.2759-.2523.1685-.6034.1685-1.3056.1685s-1.0533 0-1.3056-.1685c-.1092-.073-.2029-.1667-.2759-.2759C16 18.8033 16 18.4522 16 17.75Z"/>
</svg>
