<svg xmlns="http://www.w3.org/2000/svg" xml:space="preserve" id="_x3C_Layer_x3E_" width="800" height="800" version="1.1" viewBox="0 0 32 32">
  <style>
    .st7{fill:#ff5252}.st11{fill:#fff}
  </style>
  <g id="Tron_x2C__crypto_1_">
    <g id="XMLID_71_">
      <g id="XMLID_1484_">
        <path id="XMLID_61_" d="m2.5 1.5 11 29 16-20-5.3-5.2z" class="st11"/>
      </g>
      <g id="XMLID_2520_">
        <path id="XMLID_65_" d="m16 12.5-2.5 18 16-20z" class="st11"/>
      </g>
      <g id="XMLID_2671_">
        <path id="XMLID_66_" d="m2.5 1.5 13.5 11 8.2-7.2z" class="st11"/>
      </g>
    </g>
    <g id="XMLID_80_">
      <g id="XMLID_4521_">
        <path id="XMLID_707_" d="M16 13c-.24 0-.46-.18-.49-.43-.04-.27.15-.53.42-.57l13.5-2c.27-.04.53.15.57.42.04.27-.15.53-.42.57l-13.5 2c-.03.01-.06.01-.08.01z" class="st7"/>
      </g>
      <g id="XMLID_4522_">
        <path id="XMLID_706_" d="M16 13c-.11 0-.22-.04-.32-.11l-13.5-11c-.21-.18-.24-.49-.07-.71.17-.21.49-.25.7-.07l13.5 11c.21.17.25.49.07.7-.09.13-.23.19-.38.19z" class="st7"/>
      </g>
      <g id="XMLID_4520_">
        <path id="XMLID_705_" d="M13.5 31h-.07c-.27-.04-.46-.29-.43-.56l2.5-18c.02-.12.08-.23.17-.31l8.2-7.2c.21-.18.52-.16.71.05.18.21.16.52-.05.71l-8.06 7.08L14 30.57c-.04.25-.25.43-.5.43z" class="st7"/>
      </g>
      <g id="XMLID_4518_">
        <path id="XMLID_702_" d="M13.5 31c-.03 0-.05 0-.08-.01-.18-.03-.33-.15-.39-.32l-11-29c-.06-.16-.03-.35.08-.49s.3-.2.47-.17l21.7 3.8c.1.02.19.06.26.14l5.3 5.2c.18.18.2.47.04.67l-16 20c-.09.11-.23.18-.38.18zM3.28 2.14 13.66 29.5l15.17-18.96-4.87-4.77L3.28 2.14z" class="st7"/>
      </g>
    </g>
  </g>
</svg>
